<?xml version="1.0"?>
<svg xmlns="http://www.w3.org/2000/svg" viewBox="0 0 50 50" width="50px" height="50px">
    <path style="line-height:normal;text-indent:0;text-align:start;text-decoration-line:none;text-decoration-style:solid;text-decoration-color:#000;text-transform:none;block-progression:tb;isolation:auto;mix-blend-mode:normal" d="M 9 4 C 6.2504839 4 4 6.2504839 4 9 L 4 41 C 4 43.749516 6.2504839 46 9 46 L 41 46 C 43.749516 46 46 43.749516 46 41 L 46 9 C 46 6.2504839 43.749516 4 41 4 L 9 4 z M 9 6 L 41 6 C 42.668484 6 44 7.3315161 44 9 L 44 41 C 44 42.668484 42.668484 44 41 44 L 9 44 C 7.3315161 44 6 42.668484 6 41 L 6 9 C 6 7.3315161 7.3315161 6 9 6 z M 23.429688 9 A 1.0001 1.0001 0 0 0 22.449219 9.8066406 L 21.603516 14.107422 C 20.891022 14.330715 20.22708 14.608165 19.615234 14.941406 L 15.966797 12.548828 A 1.0001 1.0001 0 0 0 14.710938 12.679688 L 12.589844 14.806641 A 1.0001 1.0001 0 0 0 12.460938 16.058594 L 14.847656 19.716797 C 14.51555 20.329946 14.238789 20.995905 14.015625 21.708984 L 9.8183594 22.480469 A 1.0001 1.0001 0 0 0 9 23.464844 L 9 26.455078 A 1.0001 1.0001 0 0 0 9.8066406 27.4375 L 14.09375 28.283203 C 14.316845 28.999283 14.594012 29.667836 14.927734 30.283203 L 12.541016 33.941406 A 1.0001 1.0001 0 0 0 12.669922 35.193359 L 14.791016 37.318359 A 1.0001 1.0001 0 0 0 16.046875 37.449219 L 19.695312 35.056641 C 20.307243 35.389812 20.971128 35.669249 21.683594 35.892578 L 22.527344 40.191406 A 1.0001 1.0001 0 0 0 23.507812 41 L 26.492188 41 A 1.0001 1.0001 0 0 0 27.472656 40.193359 L 28.318359 35.892578 C 29.030853 35.669285 29.694795 35.391835 30.306641 35.058594 L 33.955078 37.451172 A 1.0001 1.0001 0 0 0 35.210938 37.320312 L 37.332031 35.193359 A 1.0001 1.0001 0 0 0 37.460938 33.941406 L 35.074219 30.283203 C 35.407549 29.667793 35.684806 28.999393 35.908203 28.283203 L 40.193359 27.4375 A 1.0001 1.0001 0 0 0 41 26.457031 L 41 23.464844 A 1.0001 1.0001 0 0 0 40 22.464844 L 39.947266 22.464844 L 35.748047 21.636719 C 35.525156 20.921341 35.249361 20.253506 34.916016 19.638672 L 37.302734 15.978516 A 1.0001 1.0001 0 0 0 37.173828 14.726562 L 35.052734 12.601562 A 1.0001 1.0001 0 0 0 33.794922 12.470703 L 30.146484 14.863281 C 29.536703 14.531297 28.875521 14.254329 28.166016 14.03125 L 27.398438 9.8203125 A 1.0001 1.0001 0 0 0 26.414062 9 L 23.429688 9 z M 24.251953 11 L 25.580078 11 L 26.292969 14.904297 A 1.0001 1.0001 0 0 0 27.066406 15.701172 C 28.012821 15.904221 28.847821 16.317085 29.755859 16.847656 A 1.0001 1.0001 0 0 0 30.808594 16.820312 L 34.210938 14.589844 L 35.185547 15.566406 L 32.957031 18.980469 A 1.0001 1.0001 0 0 0 32.931641 20.029297 C 33.460965 20.938772 33.871861 21.779586 34.074219 22.728516 A 1.0001 1.0001 0 0 0 34.859375 23.5 L 39 24.316406 L 39 25.634766 L 35.017578 26.421875 A 1.0001 1.0001 0 0 0 34.232422 27.193359 C 34.029081 28.142859 33.618442 28.982696 33.089844 29.892578 A 1.0001 1.0001 0 0 0 33.117188 30.939453 L 35.34375 34.355469 L 34.371094 35.332031 L 30.966797 33.101562 A 1.0001 1.0001 0 0 0 29.914062 33.074219 C 29.007565 33.604453 28.171146 34.015675 27.224609 34.21875 A 1.0001 1.0001 0 0 0 26.453125 35.003906 L 25.669922 39 L 24.332031 39 L 23.548828 35.003906 A 1.0001 1.0001 0 0 0 22.777344 34.21875 C 21.830929 34.015701 20.995929 33.602837 20.087891 33.072266 A 1.0001 1.0001 0 0 0 19.035156 33.099609 L 15.630859 35.330078 L 14.658203 34.353516 L 16.884766 30.939453 A 1.0001 1.0001 0 0 0 16.912109 29.890625 C 16.382788 28.981153 15.971889 28.142289 15.769531 27.193359 A 1.0001 1.0001 0 0 0 14.984375 26.419922 L 11 25.634766 L 11 24.296875 L 14.892578 23.582031 A 1.0001 1.0001 0 0 0 15.689453 22.806641 C 15.892794 21.857141 16.303433 21.017304 16.832031 20.107422 A 1.0001 1.0001 0 0 0 16.804688 19.060547 L 14.578125 15.644531 L 15.552734 14.667969 L 18.955078 16.898438 A 1.0001 1.0001 0 0 0 20.007812 16.925781 C 20.91431 16.395547 21.750729 15.984325 22.697266 15.78125 A 1.0001 1.0001 0 0 0 23.46875 14.996094 L 24.251953 11 z M 25 19 C 21.704545 19 19 21.704545 19 25 C 19 28.295455 21.704545 31 25 31 C 28.295455 31 31 28.295455 31 25 C 31 21.704545 28.295455 19 25 19 z M 25 21 C 27.204545 21 29 22.795455 29 25 C 29 27.204545 27.204545 29 25 29 C 22.795455 29 21 27.204545 21 25 C 21 22.795455 22.795455 21 25 21 z" font-weight="400" font-family="sans-serif" white-space="normal" overflow="visible"/>
</svg>
